<svg width="167" height="116" viewBox="0 0 167 116" fill="none" xmlns="http://www.w3.org/2000/svg">
<path d="M52.717 31.6545C52.8503 31.6534 52.9763 31.7775 53.0949 32.0265C53.2134 32.259 53.3157 32.5582 53.4019 32.9242C53.4879 33.2735 53.5493 33.6647 53.586 34.0978C53.6394 34.5307 53.6675 34.9389 53.6705 35.3222C53.6734 35.6888 53.6508 36.0057 53.6029 36.2727C53.5548 36.5231 53.4809 36.657 53.381 36.6745C52.9817 36.7609 52.5157 36.8562 51.9832 36.9603C51.4505 37.0478 50.9351 37.2101 50.4369 37.4474C49.9553 37.6678 49.5411 37.9877 49.1943 38.407C48.8475 38.8097 48.6685 39.3695 48.6574 40.0863C48.6451 40.653 48.7571 41.1272 48.9934 41.5087C49.2297 41.8902 49.524 42.2296 49.8764 42.5269C50.2287 42.8241 50.6058 43.0962 51.0077 43.3431C51.4263 43.5899 51.8118 43.8619 52.1641 44.1591C52.533 44.4396 52.8356 44.7789 53.072 45.1771C53.3083 45.5586 53.437 46.0326 53.4581 46.5992C53.4644 47.4158 53.3367 48.1335 53.0748 48.7522C52.8296 49.3708 52.4921 49.9068 52.0623 50.3601C51.6324 50.8135 51.1437 51.1923 50.596 51.4965C50.0484 51.8008 49.492 52.0551 48.9269 52.2595C48.3618 52.4639 47.8213 52.6181 47.3055 52.7221C46.7896 52.8262 46.3403 52.913 45.9574 52.9826C45.791 53.0172 45.6321 52.9435 45.4807 52.7613C45.346 52.579 45.2192 52.3467 45.1003 52.0642C44.9816 51.7985 44.8792 51.4993 44.7933 51.1666C44.7239 50.8171 44.6715 50.5009 44.6359 50.2178C44.6003 49.9181 44.5899 49.6598 44.6049 49.443C44.6199 49.2262 44.6607 49.1092 44.7272 49.0921C45.0096 48.9732 45.3585 48.8288 45.7739 48.6589C46.2058 48.4722 46.6125 48.2691 46.9942 48.0494C47.3923 47.813 47.7237 47.5604 47.9883 47.2917C48.2694 47.0061 48.4005 46.7135 48.3815 46.4136C48.3617 46.0137 48.2341 45.673 47.9985 45.3915C47.7629 45.0934 47.4774 44.8122 47.142 44.5482C46.8066 44.2841 46.4378 44.012 46.0356 43.7317C45.6333 43.4348 45.2555 43.0794 44.9023 42.6655C44.5656 42.2348 44.2699 41.7204 44.0153 41.1223C43.7773 40.5242 43.6383 39.7919 43.5982 38.9255C43.5411 38.0093 43.7343 37.1327 44.1778 36.2959C44.6212 35.4425 45.2487 34.6876 46.0603 34.0312C46.8885 33.3748 47.8677 32.8338 48.9977 32.4084C50.1445 31.9828 51.3842 31.7315 52.717 31.6545ZM71.4973 34.7837C71.5309 34.8168 71.5328 35.0584 71.503 35.5087C71.4731 35.9589 71.4194 36.551 71.3418 37.285C71.2808 38.0188 71.1956 38.8528 71.0862 39.787C70.9933 40.7045 70.884 41.647 70.7581 42.6147C70.649 43.5822 70.5314 44.5332 70.4053 45.4675C70.2957 46.385 70.1855 47.2109 70.0745 47.9451C69.9802 48.6792 69.8932 49.2799 69.8135 49.7472C69.7337 50.1979 69.6772 50.44 69.6441 50.4736C69.578 50.5407 69.4368 50.6002 69.2205 50.6519C69.0041 50.6869 68.7626 50.7138 68.4961 50.7325C68.2463 50.7511 68.0047 50.7613 67.7713 50.7631C67.538 50.7649 67.3713 50.7579 67.2712 50.742C67.221 50.7257 67.1867 50.5927 67.1681 50.3428C67.1494 50.0929 67.1468 49.7513 67.1601 49.3178C67.1734 48.8844 67.1861 48.3759 67.1982 47.7925C67.2269 47.1922 67.2636 46.5503 67.3083 45.8666L63.4861 46.2463C63.491 46.8796 63.4872 47.463 63.4747 47.9964C63.4622 48.5299 63.4492 48.9966 63.4356 49.3968C63.4219 49.7802 63.4077 50.097 63.393 50.3471C63.3781 50.5806 63.3624 50.7057 63.3459 50.7225C63.2799 50.8063 63.1306 50.8992 62.898 51.001C62.6654 51.0861 62.3993 51.1715 62.1 51.2572C61.8172 51.326 61.5426 51.3782 61.2762 51.4136C61.0266 51.4655 60.8435 51.492 60.7268 51.4929C60.6601 51.4934 60.566 51.1774 60.4444 50.545C60.3394 49.8958 60.2162 49.0634 60.075 48.0478C59.9505 47.0321 59.8165 45.8831 59.6732 44.6008C59.5299 43.3186 59.3866 42.0363 59.2433 40.7541C59.1166 39.455 58.9819 38.2143 58.8394 37.0321C58.7136 35.8497 58.6057 34.8422 58.5159 34.0095C58.4978 33.8263 58.5883 33.6673 58.7872 33.5324C59.0029 33.3974 59.2771 33.2952 59.6099 33.226C59.9425 33.1401 60.3088 33.0789 60.7085 33.0424C61.1081 32.9893 61.4829 32.9614 61.8329 32.9587C62.1829 32.956 62.4829 32.962 62.733 32.9767C62.9998 32.9913 63.1583 33.0151 63.2086 33.048C63.2589 33.081 63.2947 33.4057 63.3162 34.0222C63.3542 34.6219 63.3852 35.3967 63.4092 36.3466C63.4333 37.2964 63.4499 38.363 63.4591 39.5463C63.4849 40.7294 63.5025 41.9127 63.5117 43.096L67.4836 42.6901C67.5278 41.9397 67.572 41.1894 67.6161 40.439C67.6602 39.672 67.6962 38.9383 67.724 38.2381C67.7686 37.5377 67.7968 36.8792 67.8087 36.2624C67.8371 35.6288 67.8578 35.0703 67.8707 34.5869C67.8694 34.4202 67.9518 34.3029 68.118 34.2349C68.3006 34.1502 68.517 34.1152 68.7672 34.1299C69.0172 34.1279 69.2923 34.1508 69.5927 34.1985C69.8931 34.2461 70.177 34.3106 70.4443 34.3919C70.7114 34.4565 70.937 34.5297 71.121 34.6116C71.3216 34.6934 71.4471 34.7507 71.4973 34.7837ZM83.276 31.8921C84.376 31.8836 85.2782 32.1682 85.9827 32.7461C86.7038 33.3072 87.2512 34.053 87.6252 34.9834C87.9991 35.9139 88.2157 36.9789 88.275 38.1785C88.3508 39.3613 88.3019 40.57 88.1281 41.8047C87.9544 43.0395 87.6638 44.2501 87.2563 45.4366C86.8655 46.623 86.382 47.6768 85.8058 48.598C85.2462 49.5023 84.6185 50.2322 83.9228 50.7877C83.227 51.3264 82.4873 51.5822 81.7037 51.5549C80.67 51.513 79.7842 51.2032 79.0464 50.6255C78.3084 50.0313 77.7025 49.2693 77.2286 48.3396C76.7547 47.4099 76.4215 46.3625 76.2291 45.1973C76.0368 44.032 75.9692 42.8409 76.0264 41.6237C76.1003 40.4064 76.3077 39.2215 76.6488 38.0688C76.9897 36.8994 77.465 35.8624 78.0747 34.9576C78.6842 34.0362 79.4201 33.2971 80.2825 32.7404C81.1449 32.1837 82.1427 31.9009 83.276 31.8921ZM81.9441 47.1029C82.5774 47.098 83.1335 46.8103 83.6125 46.2399C84.108 45.6694 84.5109 44.9663 84.8211 44.1305C85.1312 43.2781 85.349 42.3597 85.4747 41.3753C85.617 40.3742 85.6598 39.4572 85.6034 38.6242C85.5468 37.7747 85.3913 37.0675 85.1369 36.5028C84.8991 35.938 84.547 35.6574 84.0803 35.661C83.347 35.6667 82.7242 35.9549 82.212 36.5255C81.7164 37.0961 81.3136 37.8075 81.0035 38.66C80.71 39.4956 80.5088 40.4139 80.3999 41.4147C80.3075 42.3988 80.3063 43.3155 80.3962 44.1649C80.4861 44.9975 80.6581 45.6962 80.9125 46.2609C81.1669 46.8256 81.5108 47.1063 81.9441 47.1029ZM106.649 35.4357C106.954 36.0833 107.144 36.8485 107.217 37.7313C107.291 38.5975 107.164 39.4818 106.838 40.3844C106.511 41.2703 105.935 42.1164 105.107 42.9229C104.297 43.7125 103.152 44.3381 101.672 44.7996C101.699 46.0828 101.734 47.3659 101.777 48.6489C101.837 49.9318 101.929 51.0728 102.053 52.0719C102.071 52.1884 101.98 52.2808 101.781 52.349C101.581 52.4172 101.323 52.4526 101.006 52.455C100.69 52.4575 100.34 52.4352 99.9558 52.3882C99.5889 52.3577 99.2385 52.3021 98.9045 52.2213C98.5705 52.1406 98.2864 52.0428 98.0522 51.928C97.818 51.8131 97.692 51.6891 97.6743 51.5559C97.6739 51.5059 97.6804 51.2642 97.6937 50.8307C97.7236 50.3971 97.761 49.8468 97.8058 49.1798C97.8505 48.4961 97.9029 47.729 97.963 46.8785C98.0229 46.0113 98.0828 45.1358 98.1426 44.252C98.2023 43.3515 98.2621 42.476 98.3222 41.6255C98.3821 40.7584 98.4344 39.983 98.4791 39.2993C98.5403 38.5988 98.5859 38.0317 98.6159 37.5981C98.6625 37.1644 98.694 36.9225 98.7103 36.8724C98.7745 36.5552 98.973 36.3703 99.306 36.3177C99.6555 36.2484 100.022 36.2705 100.407 36.3842C100.791 36.4812 101.134 36.6452 101.435 36.8762C101.737 37.0905 101.864 37.3146 101.816 37.5483C101.783 37.6819 101.754 38.1738 101.727 39.024C101.7 39.8743 101.684 40.9244 101.677 42.1745C102.125 41.971 102.556 41.7093 102.97 41.3894C103.385 41.0695 103.732 40.7002 104.012 40.2813C104.309 39.8457 104.513 39.3607 104.626 38.8265C104.755 38.2921 104.75 37.7172 104.612 37.1016C104.492 36.5858 104.221 36.1379 103.802 35.7578C103.382 35.3611 102.871 35.065 102.27 34.8697C101.668 34.6743 101.018 34.5961 100.318 34.6348C99.6181 34.6569 98.9277 34.829 98.2469 35.1509C97.5826 35.4561 96.9529 35.9277 96.3578 36.5656C95.7794 37.2035 95.3191 38.0238 94.9769 39.0265C94.9115 39.1936 94.7787 39.2613 94.5785 39.2296C94.3782 39.1978 94.1442 39.1079 93.8763 38.96C93.6084 38.7954 93.3318 38.5892 93.0465 38.3414C92.7778 38.0768 92.5341 37.8121 92.3153 37.5471C92.0966 37.2821 91.9363 37.0333 91.8345 36.8008C91.7159 36.5517 91.706 36.3518 91.8049 36.201C92.0023 35.8661 92.3404 35.4135 92.8193 34.8431C93.3149 34.2725 93.919 33.7178 94.6315 33.179C95.3606 32.6399 96.1904 32.1835 97.1209 31.8096C98.068 31.4355 99.0918 31.2693 100.192 31.3107C101.059 31.3373 101.835 31.473 102.52 31.7176C103.222 31.9455 103.833 32.2491 104.352 32.6284C104.889 33.0076 105.342 33.4458 105.713 33.9429C106.1 34.4232 106.412 34.9208 106.649 35.4357Z" fill="#FBEB08"/>
<path d="M68.9765 0.431942L1.06996 56.6148C0.708972 56.9134 0.920166 57.5 1.3887 57.5H11.5528L68.9733 9.43962C69.2899 9.17464 69.7368 9.13145 70.0983 9.3309L134.001 44.5908C134.334 44.7747 134.742 44.5336 134.742 44.153V15.5C134.742 14.9477 135.19 14.5 135.742 14.5H156.436C156.988 14.5 157.436 14.9477 157.436 15.5V57C157.436 57.5523 157.883 58 158.436 58H164C164.552 58 165 57.5523 165 57V8.5C165 7.94772 164.552 7.5 164 7.5H128.178C127.625 7.5 127.178 7.94772 127.178 8.5V31.5L70.0933 0.324776C69.7341 0.128651 69.2918 0.171101 68.9765 0.431942Z" fill="#800B8D"/>
<path d="M45 55C61.9444 60.5 82.5192 58.1431 106 55C80.5009 63.3002 49.142 65.3124 45 55Z" fill="#F02B2B"/>
<path d="M1 98.9521V65.0493H21.5522V72.251H9.32617V78.1128H16.0493L17.9873 85.2666H9.32617V98.9761L1 98.9521ZM40.8498 81.271C39.8609 81.8293 39.0713 82.5789 38.4812 83.52C37.891 84.4611 37.5959 85.4899 37.5959 86.6064C37.5959 88.2972 38.2339 89.7567 39.51 90.9849C40.7701 92.1971 42.2614 92.8032 43.9841 92.8032C45.7227 92.8032 47.2221 92.1971 48.4821 90.9849C49.7582 89.7567 50.3962 88.2972 50.3962 86.6064C50.3962 85.4899 50.1011 84.4611 49.511 83.52C48.9208 82.5789 48.1312 81.8293 47.1423 81.271C46.1693 80.7287 45.1166 80.4575 43.9841 80.4575C42.8835 80.4575 41.8388 80.7287 40.8498 81.271ZM50.4201 99V98.2822C49.9097 98.5055 49.5349 98.6571 49.2956 98.7368C47.6049 99.3908 45.8344 99.7178 43.9841 99.7178C41.5437 99.7178 39.2388 99.1515 37.0695 98.019C34.9003 96.8706 33.1776 95.3075 31.9016 93.3296C30.6096 91.3198 29.9636 89.0788 29.9636 86.6064C29.9636 84.7402 30.3384 83.0016 31.0881 81.3906C31.8378 79.7956 32.8666 78.4079 34.1745 77.2275C35.4665 76.0472 36.9659 75.146 38.6726 74.5239C40.3793 73.87 42.1498 73.543 43.9841 73.543C45.8025 73.543 47.573 73.862 49.2956 74.5C51.0183 75.138 52.5176 76.0472 53.7937 77.2275C55.1335 78.4398 56.1703 79.8275 56.904 81.3906C57.6537 83.0016 58.0285 84.7402 58.0285 86.6064L58.0046 99.0718L50.4201 99ZM91.7055 83.9507V99.0239H84.0253V83.9507C83.8977 81.7017 82.9327 80.5452 81.1303 80.4814H80.6996C78.7537 80.5452 77.7807 81.8931 77.7807 84.5249V99.0239H70.1245V84.5249C70.1245 77.5864 73.6495 73.9258 80.6996 73.543H81.1303C83.9376 73.7025 86.1866 74.3724 87.8774 75.5527C89.5522 74.3724 91.7932 73.7025 94.6005 73.543H95.0312C102.081 73.9258 105.606 77.5864 105.606 84.5249V99.0239H97.9501V84.5249C97.9501 81.8931 96.9772 80.5452 95.0312 80.4814H94.6005C92.7981 80.5452 91.8331 81.7017 91.7055 83.9507ZM125.526 74.5239V99.0479H117.894V74.5479L125.526 74.5239ZM125.55 67.5854C125.55 68.3511 125.375 69.029 125.024 69.6191C124.673 70.2093 124.194 70.6878 123.588 71.0547C122.982 71.4215 122.312 71.605 121.578 71.605C120.845 71.605 120.183 71.4295 119.592 71.0786C118.986 70.7118 118.508 70.2253 118.157 69.6191C117.79 68.9811 117.607 68.3032 117.607 67.5854C117.607 66.8517 117.782 66.1818 118.133 65.5757C118.516 64.9536 119.002 64.4671 119.592 64.1162C120.183 63.7653 120.845 63.5898 121.578 63.5898C122.312 63.5898 122.982 63.7653 123.588 64.1162C124.178 64.4671 124.657 64.9536 125.024 65.5757C125.375 66.1818 125.55 66.8517 125.55 67.5854ZM137.526 65.0493L145.159 65.0254V98.9521L137.526 99.0479V65.0493ZM165.078 74.5239V99.0479H157.446V74.5479L165.078 74.5239ZM165.102 67.5854C165.102 68.3511 164.927 69.029 164.576 69.6191C164.225 70.2093 163.746 70.6878 163.14 71.0547C162.534 71.4215 161.864 71.605 161.13 71.605C160.397 71.605 159.735 71.4295 159.145 71.0786C158.539 70.7118 158.06 70.2253 157.709 69.6191C157.342 68.9811 157.159 68.3032 157.159 67.5854C157.159 66.8517 157.334 66.1818 157.685 65.5757C158.068 64.9536 158.554 64.4671 159.145 64.1162C159.735 63.7653 160.397 63.5898 161.13 63.5898C161.864 63.5898 162.534 63.7653 163.14 64.1162C163.73 64.4671 164.209 64.9536 164.576 65.5757C164.927 66.1818 165.102 66.8517 165.102 67.5854Z" fill="#800B8D"/>
</svg>
