<svg width="331" height="196" viewBox="0 0 331 196" fill="none" xmlns="http://www.w3.org/2000/svg">
<rect width="331" height="196" rx="3" fill="white"/>
<path d="M121.717 66.6545C121.85 66.6534 121.976 66.7775 122.095 67.0265C122.213 67.259 122.316 67.5582 122.402 67.9242C122.488 68.2735 122.549 68.6647 122.586 69.0978C122.639 69.5307 122.668 69.9389 122.671 70.3222C122.673 70.6888 122.651 71.0057 122.603 71.2727C122.555 71.5231 122.481 71.657 122.381 71.6745C121.982 71.7609 121.516 71.8562 120.983 71.9603C120.451 72.0478 119.935 72.2101 119.437 72.4474C118.955 72.6678 118.541 72.9877 118.194 73.407C117.847 73.8097 117.668 74.3695 117.657 75.0863C117.645 75.653 117.757 76.1272 117.993 76.5087C118.23 76.8902 118.524 77.2296 118.876 77.5269C119.229 77.8241 119.606 78.0962 120.008 78.3431C120.426 78.5899 120.812 78.8619 121.164 79.1591C121.533 79.4396 121.836 79.7789 122.072 80.1771C122.308 80.5586 122.437 81.0326 122.458 81.5992C122.464 82.4158 122.337 83.1335 122.075 83.7522C121.83 84.3708 121.492 84.9068 121.062 85.3601C120.632 85.8135 120.144 86.1923 119.596 86.4965C119.048 86.8008 118.492 87.0551 117.927 87.2595C117.362 87.4639 116.821 87.6181 116.305 87.7221C115.79 87.8262 115.34 87.913 114.957 87.9826C114.791 88.0172 114.632 87.9435 114.481 87.7613C114.346 87.579 114.219 87.3467 114.1 87.0642C113.982 86.7985 113.879 86.4993 113.793 86.1666C113.724 85.8171 113.671 85.5009 113.636 85.2178C113.6 84.9181 113.59 84.6598 113.605 84.443C113.62 84.2262 113.661 84.1092 113.727 84.0921C114.01 83.9732 114.358 83.8288 114.774 83.6589C115.206 83.4722 115.613 83.2691 115.994 83.0494C116.392 82.813 116.724 82.5604 116.988 82.2917C117.269 82.0061 117.4 81.7135 117.381 81.4136C117.362 81.0137 117.234 80.673 116.999 80.3915C116.763 80.0934 116.477 79.8122 116.142 79.5482C115.807 79.2841 115.438 79.012 115.036 78.7317C114.633 78.4348 114.256 78.0794 113.902 77.6655C113.566 77.2348 113.27 76.7204 113.015 76.1223C112.777 75.5242 112.638 74.7919 112.598 73.9255C112.541 73.0093 112.734 72.1327 113.178 71.2959C113.621 70.4425 114.249 69.6876 115.06 69.0312C115.889 68.3748 116.868 67.8338 117.998 67.4084C119.144 66.9828 120.384 66.7315 121.717 66.6545ZM140.497 69.7837C140.531 69.8168 140.533 70.0584 140.503 70.5087C140.473 70.9589 140.419 71.551 140.342 72.285C140.281 73.0188 140.196 73.8528 140.086 74.787C139.993 75.7045 139.884 76.647 139.758 77.6147C139.649 78.5822 139.531 79.5332 139.405 80.4675C139.296 81.385 139.185 82.2109 139.075 82.9451C138.98 83.6792 138.893 84.2799 138.814 84.7472C138.734 85.1979 138.677 85.44 138.644 85.4736C138.578 85.5407 138.437 85.6002 138.221 85.6519C138.004 85.6869 137.763 85.7138 137.496 85.7325C137.246 85.7511 137.005 85.7613 136.771 85.7631C136.538 85.7649 136.371 85.7579 136.271 85.742C136.221 85.7257 136.187 85.5927 136.168 85.3428C136.149 85.0929 136.147 84.7513 136.16 84.3178C136.173 83.8844 136.186 83.3759 136.198 82.7925C136.227 82.1922 136.264 81.5503 136.308 80.8666L132.486 81.2463C132.491 81.8796 132.487 82.463 132.475 82.9964C132.462 83.5299 132.449 83.9966 132.436 84.3968C132.422 84.7802 132.408 85.097 132.393 85.3471C132.378 85.5806 132.362 85.7057 132.346 85.7225C132.28 85.8063 132.131 85.8992 131.898 86.001C131.665 86.0861 131.399 86.1715 131.1 86.2572C130.817 86.326 130.543 86.3782 130.276 86.4136C130.027 86.4655 129.843 86.492 129.727 86.4929C129.66 86.4934 129.566 86.1774 129.444 85.545C129.339 84.8958 129.216 84.0634 129.075 83.0478C128.95 82.0321 128.817 80.8831 128.673 79.6008C128.53 78.3186 128.387 77.0363 128.243 75.7541C128.117 74.455 127.982 73.2143 127.839 72.0321C127.714 70.8497 127.606 69.8422 127.516 69.0095C127.498 68.8263 127.588 68.6673 127.787 68.5324C128.003 68.3974 128.277 68.2952 128.61 68.226C128.943 68.1401 129.309 68.0789 129.708 68.0424C130.108 67.9893 130.483 67.9614 130.833 67.9587C131.183 67.956 131.483 67.962 131.733 67.9767C132 67.9913 132.158 68.0151 132.209 68.048C132.259 68.081 132.295 68.4057 132.316 69.0222C132.354 69.6219 132.385 70.3967 132.409 71.3466C132.433 72.2964 132.45 73.363 132.459 74.5463C132.485 75.7294 132.502 76.9127 132.512 78.096L136.484 77.6901C136.528 76.9397 136.572 76.1894 136.616 75.439C136.66 74.672 136.696 73.9383 136.724 73.2381C136.769 72.5377 136.797 71.8792 136.809 71.2624C136.837 70.6288 136.858 70.0703 136.871 69.5869C136.869 69.4202 136.952 69.3029 137.118 69.2349C137.301 69.1502 137.517 69.1152 137.767 69.1299C138.017 69.1279 138.292 69.1508 138.593 69.1985C138.893 69.2461 139.177 69.3106 139.444 69.3919C139.711 69.4565 139.937 69.5297 140.121 69.6116C140.322 69.6934 140.447 69.7507 140.497 69.7837ZM152.276 66.8921C153.376 66.8836 154.278 67.1682 154.983 67.7461C155.704 68.3072 156.251 69.053 156.625 69.9834C156.999 70.9139 157.216 71.9789 157.275 73.1785C157.351 74.3613 157.302 75.57 157.128 76.8047C156.954 78.0395 156.664 79.2501 156.256 80.4366C155.866 81.623 155.382 82.6768 154.806 83.598C154.246 84.5023 153.619 85.2322 152.923 85.7877C152.227 86.3264 151.487 86.5822 150.704 86.5549C149.67 86.513 148.784 86.2032 148.046 85.6255C147.308 85.0313 146.702 84.2693 146.229 83.3396C145.755 82.4099 145.422 81.3625 145.229 80.1973C145.037 79.032 144.969 77.8409 145.026 76.6237C145.1 75.4064 145.308 74.2215 145.649 73.0688C145.99 71.8994 146.465 70.8624 147.075 69.9576C147.684 69.0362 148.42 68.2971 149.283 67.7404C150.145 67.1837 151.143 66.9009 152.276 66.8921ZM150.944 82.1029C151.577 82.098 152.134 81.8103 152.612 81.2399C153.108 80.6694 153.511 79.9663 153.821 79.1305C154.131 78.2781 154.349 77.3597 154.475 76.3753C154.617 75.3742 154.66 74.4572 154.603 73.6242C154.547 72.7747 154.391 72.0675 154.137 71.5028C153.899 70.938 153.547 70.6574 153.08 70.661C152.347 70.6667 151.724 70.9549 151.212 71.5255C150.716 72.0961 150.314 72.8075 150.004 73.66C149.71 74.4956 149.509 75.4139 149.4 76.4147C149.308 77.3988 149.306 78.3155 149.396 79.1649C149.486 79.9975 149.658 80.6962 149.913 81.2609C150.167 81.8256 150.511 82.1063 150.944 82.1029ZM175.649 70.4357C175.954 71.0833 176.144 71.8485 176.217 72.7313C176.291 73.5975 176.164 74.4818 175.838 75.3844C175.511 76.2703 174.935 77.1164 174.107 77.9229C173.297 78.7125 172.152 79.3381 170.672 79.7996C170.699 81.0828 170.734 82.3659 170.777 83.6489C170.837 84.9318 170.929 86.0728 171.053 87.0719C171.071 87.1884 170.98 87.2808 170.781 87.349C170.581 87.4172 170.323 87.4526 170.006 87.455C169.69 87.4575 169.34 87.4352 168.956 87.3882C168.589 87.3577 168.238 87.3021 167.904 87.2213C167.571 87.1406 167.286 87.0428 167.052 86.928C166.818 86.8131 166.692 86.6891 166.674 86.5559C166.674 86.5059 166.68 86.2642 166.694 85.8307C166.724 85.3971 166.761 84.8468 166.806 84.1798C166.851 83.4961 166.903 82.729 166.963 81.8785C167.023 81.0113 167.083 80.1358 167.143 79.252C167.202 78.3515 167.262 77.476 167.322 76.6255C167.382 75.7584 167.434 74.983 167.479 74.2993C167.54 73.5988 167.586 73.0317 167.616 72.5981C167.663 72.1644 167.694 71.9225 167.71 71.8724C167.774 71.5552 167.973 71.3703 168.306 71.3177C168.655 71.2484 169.022 71.2705 169.407 71.3842C169.791 71.4812 170.134 71.6452 170.435 71.8762C170.737 72.0905 170.864 72.3146 170.816 72.5483C170.783 72.6819 170.754 73.1738 170.727 74.024C170.7 74.8743 170.684 75.9244 170.677 77.1745C171.125 76.971 171.556 76.7093 171.97 76.3894C172.385 76.0695 172.732 75.7002 173.012 75.2813C173.309 74.8457 173.513 74.3607 173.626 73.8265C173.755 73.2921 173.75 72.7172 173.612 72.1016C173.492 71.5858 173.221 71.1379 172.802 70.7578C172.382 70.3611 171.871 70.065 171.27 69.8697C170.668 69.6743 170.018 69.5961 169.318 69.6348C168.618 69.6569 167.928 69.829 167.247 70.1509C166.583 70.4561 165.953 70.9277 165.358 71.5656C164.779 72.2035 164.319 73.0238 163.977 74.0265C163.912 74.1936 163.779 74.2613 163.578 74.2296C163.378 74.1978 163.144 74.1079 162.876 73.96C162.608 73.7954 162.332 73.5892 162.047 73.3414C161.778 73.0768 161.534 72.8121 161.315 72.5471C161.097 72.2821 160.936 72.0333 160.835 71.8008C160.716 71.5517 160.706 71.3518 160.805 71.201C161.002 70.8661 161.34 70.4135 161.819 69.8431C162.315 69.2725 162.919 68.7178 163.631 68.179C164.361 67.6399 165.19 67.1835 166.121 66.8096C167.068 66.4355 168.092 66.2693 169.192 66.3107C170.059 66.3373 170.835 66.473 171.52 66.7176C172.222 66.9455 172.833 67.2491 173.352 67.6284C173.889 68.0076 174.342 68.4458 174.713 68.9429C175.1 69.4232 175.412 69.9208 175.649 70.4357Z" fill="#FBEB08"/>
<path d="M137.976 35.4319L70.07 91.6148C69.709 91.9134 69.9202 92.5 70.3887 92.5H80.5528L137.973 44.4396C138.29 44.1746 138.737 44.1315 139.098 44.3309L203.001 79.5908C203.334 79.7747 203.742 79.5336 203.742 79.153V50.5C203.742 49.9477 204.19 49.5 204.742 49.5H225.436C225.988 49.5 226.436 49.9477 226.436 50.5V92C226.436 92.5523 226.883 93 227.436 93H233C233.552 93 234 92.5523 234 92V43.5C234 42.9477 233.552 42.5 233 42.5H197.178C196.625 42.5 196.178 42.9477 196.178 43.5V66.5L139.093 35.3248C138.734 35.1287 138.292 35.1711 137.976 35.4319Z" fill="#800B8D"/>
<path d="M114 90C130.944 95.5 151.519 93.1431 175 90C149.501 98.3002 118.142 100.312 114 90Z" fill="#F02B2B"/>
<path d="M70 133.952V100.049H90.5522V107.251H78.3262V113.113H85.0493L86.9873 120.267H78.3262V133.976L70 133.952ZM109.85 116.271C108.861 116.829 108.071 117.579 107.481 118.52C106.891 119.461 106.596 120.49 106.596 121.606C106.596 123.297 107.234 124.757 108.51 125.985C109.77 127.197 111.261 127.803 112.984 127.803C114.723 127.803 116.222 127.197 117.482 125.985C118.758 124.757 119.396 123.297 119.396 121.606C119.396 120.49 119.101 119.461 118.511 118.52C117.921 117.579 117.131 116.829 116.142 116.271C115.169 115.729 114.117 115.458 112.984 115.458C111.884 115.458 110.839 115.729 109.85 116.271ZM119.42 134V133.282C118.91 133.506 118.535 133.657 118.296 133.737C116.605 134.391 114.834 134.718 112.984 134.718C110.544 134.718 108.239 134.152 106.07 133.019C103.9 131.871 102.178 130.307 100.902 128.33C99.6096 126.32 98.9636 124.079 98.9636 121.606C98.9636 119.74 99.3384 118.002 100.088 116.391C100.838 114.796 101.867 113.408 103.175 112.228C104.467 111.047 105.966 110.146 107.673 109.524C109.379 108.87 111.15 108.543 112.984 108.543C114.802 108.543 116.573 108.862 118.296 109.5C120.018 110.138 121.518 111.047 122.794 112.228C124.134 113.44 125.17 114.827 125.904 116.391C126.654 118.002 127.029 119.74 127.029 121.606L127.005 134.072L119.42 134ZM160.706 118.951V134.024H153.025V118.951C152.898 116.702 151.933 115.545 150.13 115.481H149.7C147.754 115.545 146.781 116.893 146.781 119.525V134.024H139.124V119.525C139.124 112.586 142.65 108.926 149.7 108.543H150.13C152.938 108.702 155.187 109.372 156.877 110.553C158.552 109.372 160.793 108.702 163.601 108.543H164.031C171.081 108.926 174.606 112.586 174.606 119.525V134.024H166.95V119.525C166.95 116.893 165.977 115.545 164.031 115.481H163.601C161.798 115.545 160.833 116.702 160.706 118.951ZM194.526 109.524V134.048H186.894V109.548L194.526 109.524ZM194.55 102.585C194.55 103.351 194.375 104.029 194.024 104.619C193.673 105.209 193.194 105.688 192.588 106.055C191.982 106.422 191.312 106.605 190.578 106.605C189.845 106.605 189.183 106.43 188.592 106.079C187.986 105.712 187.508 105.225 187.157 104.619C186.79 103.981 186.607 103.303 186.607 102.585C186.607 101.852 186.782 101.182 187.133 100.576C187.516 99.9536 188.002 99.4671 188.592 99.1162C189.183 98.7653 189.845 98.5898 190.578 98.5898C191.312 98.5898 191.982 98.7653 192.588 99.1162C193.178 99.4671 193.657 99.9536 194.024 100.576C194.375 101.182 194.55 101.852 194.55 102.585ZM206.526 100.049L214.159 100.025V133.952L206.526 134.048V100.049ZM234.078 109.524V134.048H226.446V109.548L234.078 109.524ZM234.102 102.585C234.102 103.351 233.927 104.029 233.576 104.619C233.225 105.209 232.746 105.688 232.14 106.055C231.534 106.422 230.864 106.605 230.13 106.605C229.397 106.605 228.735 106.43 228.145 106.079C227.539 105.712 227.06 105.225 226.709 104.619C226.342 103.981 226.159 103.303 226.159 102.585C226.159 101.852 226.334 101.182 226.685 100.576C227.068 99.9536 227.554 99.4671 228.145 99.1162C228.735 98.7653 229.397 98.5898 230.13 98.5898C230.864 98.5898 231.534 98.7653 232.14 99.1162C232.73 99.4671 233.209 99.9536 233.576 100.576C233.927 101.182 234.102 101.852 234.102 102.585Z" fill="#800B8D"/>
</svg>
